<?xml version="1.0" encoding="UTF-8"?>
<svg id="_레이어_1" data-name=" 레이어 1" xmlns="http://www.w3.org/2000/svg" version="1.1" viewBox="0 0 4213.15 800">
  <defs>
    <style>
      .cls-1 {
        fill: #1e1e1e;
        stroke-width: 0px;
      }
    </style>
  </defs>
  <path class="cls-1" d="M640.01,216.21C639.16,95.58,537.69,0,417.05,0H24C10.74,0,0,10.74,0,24v752c0,13.26,10.74,24,24,24h393.05c120.42,0,222.11-95.58,222.95-216.21.63-76.84-38.53-144.63-98.11-183.79h.01c59.58-39.37,98.74-106.95,98.11-183.79ZM347.37,592h-88V208h88v384Z"/>
  <polygon class="cls-1" points="880 657.18 939.71 657.18 939.71 112.15 880 125.66 880 657.18"/>
  <polygon class="cls-1" points="1159.27 306.84 1112.38 272 1112.37 272 966.03 463.17 1131.56 667.07 1178.45 630.16 1036.32 460.33 1159.27 306.84"/>
  <path class="cls-1" d="M1358.11,276.39c-40.52,0-85.95,12.73-123.63,34.07l17.8,41.9c30.54-14.19,69.61-24.86,104.45-24.86,49.72,0,76.05,23.4,76.05,82.42v30.54h-74.6,0s-.17.08-.17.08c-95.93,0-147.12,39.74-147.12,115.8,0,66.76,39.84,106.6,105.91,106.6,37.68,0,85.35-17.03,122.26-46.89l7.14,41.21h44.05v-244.42c0-93.78-43.36-136.45-132.15-136.45ZM1432.86,571.84c-24.86,24.18-70.29,42.67-105.13,42.67-38.37,0-59.71-22.02-59.71-61.08,0-48.36,30.55-71.07,98.08-71.07h66.76v89.48Z"/>
  <polygon class="cls-1" points="1596.93 657.18 1656.64 657.18 1656.64 112.15 1596.93 125.66 1596.93 657.18"/>
  <polygon class="cls-1" points="1876.2 306.84 1829.32 272 1682.97 463.17 1848.5 667.07 1895.39 630.16 1753.26 460.33 1876.2 306.84"/>
  <polygon class="cls-1" points="1829.31 272 1829.32 272 1829.32 272 1829.31 272"/>
  <path class="cls-1" d="M2075.02,276.39c-40.52,0-85.95,12.73-123.63,34.07l17.81,41.9c30.54-14.19,69.61-24.86,104.45-24.86,49.72,0,76.05,23.4,76.05,82.42v30.54h-74.6s-.18.08-.18.08c-95.92,0-147.12,39.74-147.12,115.8,0,66.76,39.84,106.6,105.91,106.6,37.69,0,85.35-17.03,122.26-46.89l7.14,41.21h44.05v-244.42c0-93.78-43.36-136.45-132.14-136.45ZM2149.79,571.84c-24.87,24.18-70.3,42.67-105.14,42.67-38.37,0-59.7-22.02-59.7-61.08,0-48.36,30.54-71.07,98.08-71.07h66.76v89.48Z"/>
  <path class="cls-1" d="M2458.83,276.3c-103.07,0-166.31,70.29-166.31,194.7s61.87,193.32,166.31,193.32,166.3-69,166.3-193.32-63.23-194.7-166.3-194.7ZM2458.83,615.28c-66.08,0-104.45-49.73-104.45-144.28s38.38-145.66,104.45-145.66,104.44,51.1,104.44,145.66-38.36,144.28-104.44,144.28Z"/>
  <path class="cls-1" d="M2894.42,271.31c-32.69,0-62.54,9.98-85.26,24.18V110l-95.24,17.03v518.79c26.33,11.36,84.58,22.03,139.29,22.03,117.95,0,189.02-77.52,189.02-207.52,0-120.11-46.89-189.02-147.81-189.02ZM2843.23,596.1c-9.2,0-19.19,0-34.07-2.15v-237.37h-.09c11.36-3.53,29.85-8.52,51.19-8.52,67.45,0,85.26,41.99,85.26,114.43,0,95.93-42.58,133.61-102.29,133.61Z"/>
  <path class="cls-1" d="M3245.45,271.14c-49.04,0-102.39,14.97-138.61,39.83l26.33,65.39c34.15-17.72,66.07-24.86,100.91-24.86,56.1,0,68.92,23.49,68.92,64.7v12.82h-59.71v-.16c-101.6,0-155.63,41.21-155.63,120.1,0,74.59,40.52,117.95,113.74,117.95,33.38,0,74.59-12.04,112.96-41.9l10.67,32h66.76v-241.59c0-97.39-50.42-144.28-146.34-144.28ZM3303,563.4h0s-.09-.08-.09-.08c-17.04,14.97-51.19,29.85-82.42,29.85s-46.89-17.73-46.89-44.74c0-37.69,27.02-58.25,78.21-58.25h51.19v73.22Z"/>
  <path class="cls-1" d="M3678.2,271.31c-39.84,0-86.03,19.19-119.42,49.04l-14.19-37.68h-67.55v374.42h95.24v-288.47c22.03-8.52,50.51-14.2,70.38-14.2,50.42,0,66.08,17.81,66.08,59.71v243.05h95.24v-240.21c0-93.78-41.9-145.66-125.78-145.66Z"/>
  <polygon class="cls-1" points="4083.85 458.18 4083.84 458.18 4198.96 309.68 4127.89 259.95 3984.39 454.65 3984.39 110 3889.15 127.03 3889.15 657.26 3984.39 657.26 3984.39 477.45 4141.41 670 4213.16 613.13 4083.85 458.18"/>
</svg>